<svg xmlns="http://www.w3.org/2000/svg" xmlns:xlink="http://www.w3.org/1999/xlink" viewBox="0,0,256,256" width="48px" height="48px"><g transform="translate(57.6,57.6) scale(0.55,0.55)"><g fill="none" fill-rule="nonzero" stroke="none" stroke-width="1" stroke-linecap="butt" stroke-linejoin="miter" stroke-miterlimit="10" stroke-dasharray="" stroke-dashoffset="0" font-family="none" font-weight="none" font-size="none" text-anchor="none" style="mix-blend-mode: normal"><g transform="translate(-154.66667,-21.31976) scale(5.33333,5.33333)"><path d="M37,6c0,-1.105 -0.895,-2 -2,-2h-22c-1.105,0 -2,0.895 -2,2v4h26z" fill="#eb6773"></path><path d="M11,41.72c0,0.996 1.092,1.606 1.94,1.084l11.06,-6.806l11.06,6.806c0.848,0.522 1.94,-0.088 1.94,-1.084v-11.72h-26z" fill="#b31523"></path><rect x="11" y="18" width="26" height="12" fill="#cf1928"></rect><rect x="11" y="10" width="26" height="8" fill="#d9414f"></rect></g></g><g fill="#000000" fill-rule="nonzero" stroke="none" stroke-width="1" stroke-linecap="butt" stroke-linejoin="miter" stroke-miterlimit="10" stroke-dasharray="" stroke-dashoffset="0" font-family="none" font-weight="none" font-size="none" text-anchor="none" style="mix-blend-mode: normal"><g><path d="M84.855,117.90833v0c0,-2.32 -0.59,-4.07333 -1.77,-5.26c-1.18667,-1.18 -3.34333,-2.41 -6.47,-3.69v0c-5.7,-2.16 -9.8,-4.69 -12.3,-7.59c-2.5,-2.90667 -3.75,-6.34 -3.75,-10.3v0c0,-4.79333 1.69667,-8.64 5.09,-11.54c3.4,-2.90667 7.71667,-4.36 12.95,-4.36v0c3.49333,0 6.60667,0.73667 9.34,2.21c2.73333,1.47333 4.83667,3.55 6.31,6.23c1.47333,2.68 2.21,5.72667 2.21,9.14v0h-11.45c0,-2.65333 -0.56667,-4.67667 -1.7,-6.07c-1.13333,-1.39333 -2.76667,-2.09 -4.9,-2.09v0c-2.00667,0 -3.57,0.59333 -4.69,1.78c-1.12,1.18 -1.68,2.77333 -1.68,4.78v0c0,1.56 0.62667,2.97333 1.88,4.24c1.24667,1.26 3.46,2.56667 6.64,3.92v0c5.54667,2.00667 9.57667,4.47 12.09,7.39c2.51333,2.91333 3.77,6.62333 3.77,11.13v0c0,4.94667 -1.57667,8.81333 -4.73,11.6c-3.15333,2.78667 -7.43667,4.18 -12.85,4.18v0c-3.67333,0 -7.02,-0.75333 -10.04,-2.26c-3.02,-1.51333 -5.38333,-3.67667 -7.09,-6.49c-1.70667,-2.81333 -2.56,-6.13333 -2.56,-9.96v0h11.52c0,3.28 0.64,5.66333 1.92,7.15c1.27333,1.48667 3.35667,2.23 6.25,2.23v0c4.00667,0 6.01,-2.12333 6.01,-6.37zM124.585,132.82833l-0.31,-3.87c-2.29333,3.1 -5.36667,4.65 -9.22,4.65v0c-3.88,0 -6.82333,-1.33333 -8.83,-4c-2.00667,-2.67333 -3.01,-6.56 -3.01,-11.66v0v-27.39h11.06v27.66c0.05333,4.11333 1.42,6.17 4.1,6.17v0c2.52667,0 4.35,-1.09333 5.47,-3.28v0v-30.55h11.13v42.27zM142.905,90.55833h10.35l0.31,3.91c2.48,-3.12667 5.75,-4.69 9.81,-4.69v0c4.22,0 7.2,1.90333 8.94,5.71v0c2.42667,-3.80667 5.88,-5.71 10.36,-5.71v0c7.39333,0 11.18,5.11667 11.36,15.35v0v27.7h-11.05v-26.99c0,-2.44667 -0.34,-4.19333 -1.02,-5.24c-0.67333,-1.04 -1.81667,-1.56 -3.43,-1.56v0c-2.06,0 -3.59667,1.26333 -4.61,3.79v0l0.07,1.33v28.67h-11.05v-26.91c0,-2.42667 -0.32667,-4.18 -0.98,-5.26c-0.64667,-1.08 -1.80333,-1.62 -3.47,-1.62v0c-1.9,0 -3.41,1.03 -4.53,3.09v0v30.7h-11.06zM202.245,90.55833h10.35l0.31,3.91c2.47333,-3.12667 5.74333,-4.69 9.81,-4.69v0c4.21333,0 7.19333,1.90333 8.94,5.71v0c2.42,-3.80667 5.87,-5.71 10.35,-5.71v0c7.4,0 11.19,5.11667 11.37,15.35v0v27.7h-11.06v-26.99c0,-2.44667 -0.33667,-4.19333 -1.01,-5.24c-0.68,-1.04 -1.82667,-1.56 -3.44,-1.56v0c-2.05333,0 -3.59,1.26333 -4.61,3.79v0l0.08,1.33v28.67h-11.05v-26.91c0,-2.42667 -0.32667,-4.18 -0.98,-5.26c-0.65333,-1.08 -1.81333,-1.62 -3.48,-1.62v0c-1.9,0 -3.41,1.03 -4.53,3.09v0v30.7h-11.05zM274.115,75.95833l-1.29,39.37h-9.18l-1.29,-39.37zM262.165,127.47833v0c0,-1.77333 0.56,-3.22667 1.68,-4.36c1.12,-1.13333 2.57667,-1.7 4.37,-1.7v0c1.77333,0 3.22,0.56667 4.34,1.7c1.12,1.13333 1.68,2.58667 1.68,4.36v0c0,1.74667 -0.55333,3.18 -1.66,4.3c-1.10667,1.12 -2.56,1.68 -4.36,1.68v0c-1.82,0 -3.28333,-0.56 -4.39,-1.68c-1.10667,-1.12 -1.66,-2.55333 -1.66,-4.3zM312.245,100.09833v9.53h-17.85v23.2h-11.49v-56.87h31.49v9.57h-20v14.57zM327.945,90.55833l5.08,23.87l5.62,-23.87h11.8l-13.91,48.6c-2.08,7.16 -5.99667,10.74 -11.75,10.74v0c-1.33333,0 -2.84667,-0.24667 -4.54,-0.74v0v-8.63l1.29,0.03c1.72,0 3.01667,-0.33 3.89,-0.99c0.87333,-0.66667 1.53,-1.82 1.97,-3.46v0l0.86,-2.85l-12.19,-42.7z"></path></g></g></g></svg>